Coordinates
version=1
nRows=23
nColumns=38
inDegrees=no

Units are S.I. units (second, meters, Newtons, ...)
If the header above contains a line with 'inDegrees', this indicates whether rotational values are in degrees (yes) or radians (no).

endheader
time	pelvis_tilt	pelvis_list	pelvis_rotation	pelvis_tx	pelvis_ty	pelvis_tz	hip_flexion_r	hip_adduction_r	hip_rotation_r	knee_angle_r	ankle_angle_r	subtalar_angle_r	mtp_angle_r	hip_flexion_l	hip_adduction_l	hip_rotation_l	knee_angle_l	ankle_angle_l	subtalar_angle_l	mtp_angle_l	lumbar_extension	lumbar_bending	lumbar_rotation	arm_flex_r	arm_add_r	arm_rot_r	elbow_flex_r	pro_sup_r	wrist_flex_r	wrist_dev_r	arm_flex_l	arm_add_l	arm_rot_l	elbow_flex_l	pro_sup_l	wrist_flex_l	wrist_dev_l
1.96	-2.9779	1.49453	-1.75057	0.621266	1.48275	0.952028	0.465904	-0.0304163	0.0585229	1.27898	-0.103935	0	0	0.0680758	0.0275437	-0.312248	0.391098	0.149653	0	0	-0.122016	-0.0705902	-0.105341	-0.234845	-0.0492714	-0.634145	0.286603	1.25234	0	0	-0.196735	-0.401997	0.488947	0.758946	0.755942	0	0
1.97	-3.0125	1.49286	-1.71152	0.619865	1.49039	0.952385	0.473776	-0.0312708	0.053169	1.24963	-0.0915826	0	0	0.0520983	0.02906	-0.304711	0.381191	0.153241	0	0	-0.126543	-0.0673766	-0.110878	-0.230669	-0.0505581	-0.628007	0.286789	1.24795	0	0	-0.190983	-0.406931	0.490847	0.763298	0.759583	0	0
1.98	-3.03218	1.49071	-1.68863	0.61861	1.4981	0.952608	0.481461	-0.0379856	0.0409474	1.21918	-0.0808071	0	0	0.0356535	0.0315633	-0.298206	0.371421	0.157235	0	0	-0.131012	-0.0654053	-0.114762	-0.226792	-0.0514971	-0.622343	0.28747	1.24299	0	0	-0.184883	-0.411856	0.493359	0.766971	0.763674	0	0
1.99	-3.05802	1.48911	-1.66182	0.617588	1.50574	0.952719	0.487971	-0.0406958	0.0331956	1.18519	-0.0710583	0	0	0.020456	0.0327531	-0.29394	0.3631	0.161915	0	0	-0.134968	-0.0627785	-0.116023	-0.22284	-0.0521201	-0.616533	0.288605	1.23784	0	0	-0.177564	-0.415715	0.495516	0.769059	0.767627	0	0
2	-3.08166	1.48842	-1.63866	0.616722	1.51324	0.952645	0.494541	-0.0395243	0.0313457	1.14915	-0.062409	0	0	0.00690386	0.0336947	-0.290976	0.355906	0.167142	0	0	-0.137962	-0.0601633	-0.115738	-0.218705	-0.0526047	-0.610748	0.290296	1.23275	0	0	-0.169517	-0.419331	0.498908	0.769585	0.772466	0	0
2.01	-3.10472	1.48804	-1.61656	0.615914	1.52066	0.952461	0.500451	-0.0385032	0.0284788	1.11142	-0.0547803	0	0	-0.00578681	0.0343927	-0.288545	0.34977	0.172759	0	0	-0.140582	-0.0574091	-0.114777	-0.214038	-0.0531301	-0.604601	0.291551	1.22763	0	0	-0.160813	-0.422961	0.503268	0.768929	0.777697	0	0
2.02	-3.12986	1.48784	-1.59243	0.615145	1.52811	0.95214	0.505478	-0.0374466	0.0244386	1.07202	-0.0484876	0	0	-0.0175973	0.0345565	-0.286576	0.344879	0.178947	0	0	-0.142894	-0.0542998	-0.113672	-0.208898	-0.0534632	-0.599042	0.292026	1.22212	0	0	-0.151724	-0.426305	0.50764	0.767356	0.782568	0	0
2.03	3.12568	1.48802	-1.56606	0.614468	1.53554	0.951711	0.5099	-0.0361443	0.0192979	1.03114	-0.0438061	0	0	-0.0283195	0.0341078	-0.285567	0.341374	0.185667	0	0	-0.144703	-0.0509385	-0.112171	-0.204115	-0.0534311	-0.593713	0.293121	1.21677	0	0	-0.142595	-0.428889	0.510804	0.765666	0.786436	0	0
2.04	3.09676	1.48945	-1.53863	0.613907	1.54269	0.951102	0.514675	-0.0349209	0.0126963	0.988904	-0.0398112	0	0	-0.0364983	0.0331703	-0.285223	0.340525	0.192923	0	0	-0.145071	-0.047426	-0.110839	-0.199409	-0.0535788	-0.588463	0.29538	1.21146	0	0	-0.134266	-0.430654	0.512094	0.764106	0.790733	0	0
2.05	3.06788	1.48778	-1.51163	0.613315	1.55043	0.950777	0.514321	-0.0331108	0.00532137	0.944238	-0.0376235	0	0	-0.0506304	0.0329793	-0.283179	0.333738	0.19881	0	0	-0.148619	-0.0438245	-0.107709	-0.195459	-0.0528407	-0.586809	0.29874	1.21327	0	0	-0.122399	-0.435051	0.526775	0.762443	0.765618	0	0
2.06	3.03465	1.48793	-1.47946	0.612785	1.55799	0.950197	0.515024	-0.0316868	-0.00495255	0.898947	-0.0352885	0	0	-0.060834	0.0315858	-0.282484	0.331329	0.205777	0	0	-0.14986	-0.0398691	-0.106363	-0.191487	-0.0526977	-0.580543	0.30121	1.20873	0	0	-0.113161	-0.436495	0.530723	0.758874	0.764427	0	0
2.07	2.99796	1.48782	-1.44345	0.612314	1.5657	0.949561	0.514388	-0.0300653	-0.0173855	0.852911	-0.0323978	0	0	-0.0714528	0.0297269	-0.28171	0.328735	0.212827	0	0	-0.15095	-0.0356115	-0.105351	-0.187975	-0.052393	-0.574466	0.303487	1.20415	0	0	-0.103975	-0.437508	0.534893	0.754904	0.762821	0	0
2.08	2.95724	1.48754	-1.40318	0.611897	1.57353	0.948861	0.512727	-0.0279605	-0.0318417	0.806514	-0.0287119	0	0	-0.0824481	0.0274055	-0.281159	0.325765	0.220089	0	0	-0.151782	-0.0309609	-0.104606	-0.185024	-0.0521233	-0.568831	0.306141	1.19952	0	0	-0.0951386	-0.43824	0.539244	0.750285	0.761285	0	0
2.09	2.93614	1.48767	-1.3766	0.612021	1.58163	0.948101	0.508814	-0.0188362	-0.0436615	0.761559	-0.0304379	0	0	-0.0953123	0.0206371	-0.286344	0.319856	0.230741	0	0	-0.151837	-0.0292994	-0.107	-0.183823	-0.0500751	-0.563969	0.308048	1.1948	0	0	-0.0853232	-0.440362	0.544561	0.745472	0.759162	0	0
2.1	2.89209	1.48742	-1.33291	0.61163	1.58965	0.947285	0.506053	-0.0173166	-0.0614486	0.714892	-0.0247516	0	0	-0.106966	0.0180384	-0.286385	0.315266	0.237456	0	0	-0.15198	-0.0243525	-0.106291	-0.18101	-0.0508165	-0.557745	0.309469	1.19028	0	0	-0.0764422	-0.44081	0.551099	0.740719	0.75743	0	0
2.11	2.84519	1.48723	-1.28647	0.611326	1.59776	0.946383	0.503069	-0.0151849	-0.0805811	0.668916	-0.0189636	0	0	-0.118436	0.0149295	-0.287041	0.310944	0.244444	0	0	-0.151646	-0.0194036	-0.105458	-0.178306	-0.0518701	-0.551131	0.310313	1.18583	0	0	-0.0677595	-0.440828	0.557247	0.736633	0.755758	0	0
2.12	2.7963	1.4874	-1.23799	0.611114	1.60597	0.945356	0.500543	-0.0125058	-0.100028	0.624455	-0.013329	0	0	-0.129198	0.0114712	-0.288544	0.307101	0.251883	0	0	-0.150524	-0.0146154	-0.104771	-0.176108	-0.0528377	-0.545196	0.311448	1.18058	0	0	-0.0590657	-0.440667	0.563728	0.732058	0.755119	0	0
2.13	2.74449	1.48886	-1.18635	0.611	1.61428	0.944113	0.499758	-0.0095252	-0.118921	0.582348	-0.00714149	0	0	-0.137912	0.00794895	-0.290728	0.30444	0.259592	0	0	-0.147571	-0.0102444	-0.104911	-0.174489	-0.0536868	-0.5393	0.312967	1.17439	0	0	-0.0520258	-0.440849	0.569845	0.727202	0.755722	0	0
2.14	2.69045	1.48889	-1.13221	0.610875	1.62274	0.942978	0.49666	-0.00551404	-0.139055	0.540273	-0.000760307	0	0	-0.14918	0.00435252	-0.290767	0.299113	0.266026	0	0	-0.145989	-0.00503086	-0.104127	-0.168022	-0.0530468	-0.571077	0.306794	1.22136	0	0	-0.042997	-0.441602	0.583916	0.720262	0.752231	0	0
2.15	2.63195	1.49003	-1.07375	0.610842	1.63124	0.941667	0.494997	-0.000932618	-0.157127	0.499793	0.00558828	0	0	-0.158174	0.000668817	-0.291809	0.295629	0.272879	0	0	-0.142627	-0.000468825	-0.104524	-0.16545	-0.0544133	-0.567979	0.305974	1.2198	0	0	-0.0363172	-0.44198	0.593011	0.715462	0.751618	0	0
2.16	2.56745	1.49201	-1.00968	0.611003	1.63984	0.940218	0.494612	0.0045223	-0.172936	0.461365	0.0121251	0	0	-0.16512	-0.00323875	-0.29466	0.294137	0.280203	0	0	-0.137802	0.00339729	-0.105221	-0.164523	-0.0562428	-0.550521	0.306703	1.19871	0	0	-0.031369	-0.441944	0.597623	0.711419	0.755718	0	0
2.17	2.49793	1.49332	-0.940225	0.611252	1.64851	0.938789	0.493004	0.0111508	-0.186952	0.422886	0.0178002	0	0	-0.172255	-0.00767558	-0.297099	0.292658	0.287099	0	0	-0.133407	0.00747407	-0.105777	-0.161187	-0.0569912	-0.551341	0.303493	1.20376	0	0	-0.0256555	-0.442299	0.605473	0.707373	0.75459	0	0
2.18	2.42069	1.49462	-0.862717	0.611584	1.65724	0.93727	0.491633	0.0185134	-0.198393	0.385623	0.0232189	0	0	-0.178007	-0.0126459	-0.299121	0.292869	0.293992	0	0	-0.12846	0.0114894	-0.106812	-0.157959	-0.0575947	-0.550339	0.300088	1.20705	0	0	-0.0207065	-0.442773	0.612873	0.704016	0.754219	0	0
